<svg xmlns="http://www.w3.org/2000/svg" xmlns:xlink="http://www.w3.org/1999/xlink" style="display:none">

  <!--express-->
  <symbol id="express" viewBox="0 -181.5 512 512">
    <g>
        <path d="M3.33224862,115.629027 L3.33224862,58.6475756 L74.4757566,58.6475756 L74.4757566,55.315327 L3.33224862,55.315327 L3.33224862,3.33224862 L78.9742922,3.33224862 L78.9742922,0 L-3.55271368e-15,0 L-3.55271368e-15,118.961276 L79.640742,118.961276 L79.640742,115.629027 L3.33224862,115.629027 L3.33224862,115.629027 Z M143.786528,33.3224862 L114.296128,72.1431826 L85.472177,33.3224862 L81.1402538,33.3224862 L112.296778,74.642369 L78.14123,118.961276 L82.1399284,118.961276 L114.296128,77.1415554 L146.618939,118.961276 L150.78425,118.961276 L116.462089,74.642369 L147.785226,33.3224862 L143.786528,33.3224862 L143.786528,33.3224862 Z M160.780996,148.285063 L160.780996,94.9690856 L161.114221,94.9690856 C163.11358,102.744371 167.056701,108.992275 172.943703,113.712984 C178.830705,118.433693 186.32819,120.794012 195.436381,120.794012 C201.323384,120.794012 206.543854,119.599969 211.09795,117.211845 C215.652046,114.823722 219.456324,111.574812 222.510902,107.465018 C225.565478,103.355224 227.898028,98.5790488 229.508624,93.1363488 C231.119218,87.6936488 231.924504,81.973346 231.924504,75.9752684 C231.924504,69.532889 231.09145,63.5904384 229.425318,58.1477384 C227.759184,52.7050384 225.343328,47.9844 222.177676,43.9856818 C219.012024,39.9869634 215.179976,36.8768958 210.681418,34.6553856 C206.18286,32.4338754 201.101232,31.323137 195.436381,31.323137 C191.104437,31.323137 187.07801,31.9618116 183.35698,33.23918 C179.635951,34.5165484 176.331504,36.3214982 173.443541,38.654084 C170.555577,40.9866696 168.056416,43.7357472 165.945981,46.9013992 C163.835546,50.0670512 162.224976,53.5381088 161.114221,57.3146762 L160.780996,57.3146762 L160.780996,33.3224862 L157.448747,33.3224862 L157.448747,148.285063 L160.780996,148.285063 L160.780996,148.285063 Z M195.436381,117.628376 C184.995284,117.628376 176.609208,114.046245 170.277904,106.881874 C163.9466,99.717504 160.780996,89.415405 160.780996,75.9752684 C160.780996,70.421493 161.558513,65.1454854 163.11357,60.1470876 C164.668627,55.1486896 166.917872,50.7612728 169.861373,46.9847054 C172.804874,43.2081382 176.442543,40.2091444 180.774487,37.9876342 C185.106432,35.766124 189.993681,34.6553856 195.436381,34.6553856 C200.990156,34.6553856 205.849638,35.766124 210.01497,37.9876342 C214.1803,40.2091444 217.62359,43.2359066 220.34494,47.0680118 C223.06629,50.9001168 225.121156,55.2875336 226.5096,60.2303938 C227.898044,65.173254 228.592256,70.421493 228.592256,75.9752684 C228.592256,80.9736664 227.95358,85.9442208 226.676212,90.887081 C225.398844,95.8299412 223.427284,100.272895 220.76147,104.216075 C218.095658,108.159256 214.680138,111.380398 210.514806,113.879596 C206.349474,116.378795 201.323384,117.628376 195.436381,117.628376 L195.436381,117.628376 L195.436381,117.628376 Z M250.251872,118.961276 L250.251872,70.4770582 C250.251872,65.8118868 250.918314,61.2578592 252.25122,56.814839 C253.584126,52.3718186 255.638992,48.4564656 258.41588,45.0686626 C261.192768,41.6808596 264.719362,39.0150872 268.99577,37.0712658 C273.272176,35.1274444 278.353806,34.322159 284.240808,34.6553856 L284.240808,31.323137 C279.131334,31.2120614 274.660612,31.7674308 270.828506,32.9892614 C266.996402,34.211092 263.691954,35.8771996 260.915066,37.9876342 C258.138178,40.098069 255.916702,42.569462 254.25057,45.4018874 C252.584436,48.2343128 251.362624,51.2610752 250.585096,54.4822648 L250.251872,54.4822648 L250.251872,33.3224862 L246.919622,33.3224862 L246.919622,118.961276 L250.251872,118.961276 L250.251872,118.961276 Z M288.406118,76.8083306 L360.049464,76.8083306 C360.271614,70.9213286 359.688476,65.2565626 358.300032,59.8138626 C356.911588,54.3711628 354.690112,49.5394506 351.635536,45.3185812 C348.580958,41.0977118 344.637838,37.7099596 339.806052,35.155223 C334.974268,32.6004862 329.226196,31.323137 322.561666,31.323137 C317.78542,31.323137 313.120318,32.3228016 308.566222,34.3221608 C304.012126,36.32152 300.013468,39.2372084 296.570126,43.0693134 C293.126786,46.9014184 290.34994,51.5942884 288.239506,57.1480638 C286.12907,62.7018392 285.07387,69.0330484 285.07387,76.1418808 C285.07387,82.473185 285.79585,88.387867 287.23983,93.8861048 C288.683812,99.3843424 290.90529,104.160518 293.904328,108.214774 C296.903366,112.26903 300.763182,115.406866 305.483892,117.628376 C310.204602,119.849886 315.897136,120.905088 322.561666,120.794012 C332.33631,120.794012 340.555776,118.044935 347.220306,112.546697 C353.884836,107.048459 357.827958,99.3010588 359.049788,89.304263 L355.71754,89.304263 C354.273558,98.7456812 350.580352,105.826639 344.637814,110.547348 C338.695274,115.268057 331.225558,117.628376 322.228442,117.628376 C316.119288,117.628376 310.954354,116.573175 306.733486,114.46274 C302.512616,112.352305 299.069326,109.464385 296.403514,105.798894 C293.737702,102.133402 291.766142,97.8292904 290.488774,92.8864302 C289.211404,87.94357 288.517194,82.5842572 288.406118,76.8083306 L288.406118,76.8083306 L288.406118,76.8083306 Z M356.717214,73.476082 L288.406118,73.476082 C288.739344,67.4780046 289.850082,62.0909232 291.738366,57.3146762 C293.62665,52.5384294 296.098044,48.4564656 299.15262,45.0686626 C302.207196,41.6808596 305.76156,39.0983926 309.815816,37.3211846 C313.870072,35.5439764 318.22972,34.6553856 322.89489,34.6553856 C328.448666,34.6553856 333.335916,35.6828186 337.556784,37.7377156 C341.777654,39.7926126 345.304248,42.597227 348.136674,46.1516434 C350.9691,49.7060596 353.107272,53.8435602 354.551252,58.5642694 C355.995234,63.2849786 356.717214,68.255533 356.717214,73.476082 L356.717214,73.476082 L356.717214,73.476082 Z M429.193622,58.6475756 L432.52587,58.6475756 C432.52587,49.0950818 429.749024,42.1529666 424.195248,37.8210218 C418.641474,33.489077 411.088452,31.323137 401.535958,31.323137 C396.204334,31.323137 391.705844,31.98958 388.040352,33.3224862 C384.37486,34.6553922 381.375866,36.3770368 379.04328,38.4874716 C376.710694,40.5979062 375.044586,42.930457 374.044908,45.4851936 C373.045228,48.0399304 372.545396,50.4835548 372.545396,52.8161406 C372.545396,57.481312 373.37845,61.2022858 375.044582,63.9791734 C376.710714,66.7560612 379.32095,68.9220012 382.875366,70.4770582 C385.319028,71.5878134 388.095874,72.587478 391.205988,73.476082 C394.316102,74.364686 397.926002,75.3088138 402.035796,76.3084934 C405.701288,77.1970974 409.311188,78.0856882 412.865604,78.9742922 C416.42002,79.8628962 419.557856,81.0569402 422.279206,82.5564594 C425.000556,84.0559788 427.222032,85.9720026 428.943704,88.3045884 C430.665374,90.637174 431.526196,93.6917048 431.526196,97.468272 C431.526196,101.133764 430.665374,104.243831 428.943704,106.798568 C427.222032,109.353305 425.028324,111.435939 422.362512,113.046534 C419.6967,114.657129 416.725474,115.823405 413.448748,116.545395 C410.17202,117.267386 406.978646,117.628376 403.868532,117.628376 C393.760662,117.628376 386.01326,115.379131 380.626098,110.880573 C375.238936,106.382015 372.545396,99.3010572 372.545396,89.6374878 L369.213146,89.6374878 C369.213146,100.411812 372.128836,108.298055 377.9603,113.296453 C383.791764,118.294851 392.427754,120.794012 403.868532,120.794012 C407.534024,120.794012 411.22723,120.377485 414.94826,119.544419 C418.669288,118.711353 422.001504,117.350698 424.945004,115.462415 C427.888506,113.574131 430.276594,111.130506 432.10934,108.131468 C433.942086,105.132429 434.858444,101.466992 434.858444,97.1350472 C434.858444,93.0252534 434.05316,89.693038 432.442564,87.1383014 C430.83197,84.5835646 428.721566,82.4731616 426.111292,80.807029 C423.501018,79.1408964 420.55756,77.8357786 417.280834,76.8916368 C414.004106,75.947495 410.699658,75.0311358 407.367394,74.1425318 C402.702222,72.9207012 398.620258,71.8654996 395.12138,70.9768956 C391.622502,70.0882914 388.373592,69.03309 385.374552,67.8112594 C382.48659,66.5894288 380.181808,64.8400158 378.460136,62.5629678 C376.738466,60.2859198 375.877644,57.03701 375.877644,52.8161406 C375.877644,52.038612 376.099792,50.650189 376.544094,48.6508298 C376.988396,46.6514706 378.043598,44.624373 379.70973,42.569476 C381.375862,40.5145792 383.93056,38.6818608 387.373902,37.0712658 C390.817242,35.460671 395.53788,34.6553856 401.535958,34.6553856 C405.645752,34.6553856 409.394494,35.099681 412.782298,35.988285 C416.1701,36.8768892 419.085788,38.2930806 421.52945,40.236902 C423.973112,42.1807234 425.861366,44.6521164 427.194272,47.6511552 C428.527178,50.650194 429.193622,54.3156308 429.193622,58.6475756 L429.193622,58.6475756 L429.193622,58.6475756 Z M506.335178,58.6475756 L509.667426,58.6475756 C509.667426,49.0950818 506.89058,42.1529666 501.336804,37.8210218 C495.783028,33.489077 488.230008,31.323137 478.677514,31.323137 C473.34589,31.323137 468.847398,31.98958 465.181906,33.3224862 C461.516416,34.6553922 458.517422,36.3770368 456.184836,38.4874716 C453.85225,40.5979062 452.186142,42.930457 451.186462,45.4851936 C450.186784,48.0399304 449.68695,50.4835548 449.68695,52.8161406 C449.68695,57.481312 450.520004,61.2022858 452.186138,63.9791734 C453.85227,66.7560612 456.462506,68.9220012 460.016922,70.4770582 C462.460582,71.5878134 465.237428,72.587478 468.347544,73.476082 C471.457658,74.364686 475.067558,75.3088138 479.177352,76.3084934 C482.842842,77.1970974 486.452742,78.0856882 490.00716,78.9742922 C493.561576,79.8628962 496.699412,81.0569402 499.420762,82.5564594 C502.142112,84.0559788 504.363588,85.9720026 506.085258,88.3045884 C507.80693,90.637174 508.667752,93.6917048 508.667752,97.468272 C508.667752,101.133764 507.80693,104.243831 506.085258,106.798568 C504.363588,109.353305 502.16988,111.435939 499.504068,113.046534 C496.838256,114.657129 493.86703,115.823405 490.590302,116.545395 C487.313576,117.267386 484.120202,117.628376 481.010088,117.628376 C470.902216,117.628376 463.154816,115.379131 457.767654,110.880573 C452.380492,106.382015 449.68695,99.3010572 449.68695,89.6374878 L446.354702,89.6374878 C446.354702,100.411812 449.27039,108.298055 455.101854,113.296453 C460.93332,118.294851 469.56931,120.794012 481.010088,120.794012 C484.67558,120.794012 488.368784,120.377485 492.089814,119.544419 C495.810844,118.711353 499.14306,117.350698 502.08656,115.462415 C505.030062,113.574131 507.418148,111.130506 509.250894,108.131468 C511.08364,105.132429 512,101.466992 512,97.1350472 C512,93.0252534 511.194714,89.693038 509.58412,87.1383014 C507.973524,84.5835646 505.863122,82.4731616 503.252848,80.807029 C500.642572,79.1408964 497.699116,77.8357786 494.422388,76.8916368 C491.145662,75.947495 487.841214,75.0311358 484.508948,74.1425318 C479.843778,72.9207012 475.761814,71.8654996 472.262936,70.9768956 C468.764056,70.0882914 465.515146,69.03309 462.516108,67.8112594 C459.628144,66.5894288 457.323362,64.8400158 455.601692,62.5629678 C453.880022,60.2859198 453.0192,57.03701 453.0192,52.8161406 C453.0192,52.038612 453.241348,50.650189 453.68565,48.6508298 C454.129952,46.6514706 455.185152,44.624373 456.851286,42.569476 C458.517418,40.5145792 461.072116,38.6818608 464.515458,37.0712658 C467.958798,35.460671 472.679436,34.6553856 478.677514,34.6553856 C482.787308,34.6553856 486.53605,35.099681 489.923852,35.988285 C493.311656,36.8768892 496.227344,38.2930806 498.671006,40.236902 C501.114666,42.1807234 503.002922,44.6521164 504.335828,47.6511552 C505.668734,50.650194 506.335178,54.3156308 506.335178,58.6475756 L506.335178,58.6475756 L506.335178,58.6475756 Z" fill="#222222"></path>
    </g>
  </symbol>

  <!--mysql-->
  <symbol id="mysql" viewBox="-18.458 -22.75 191.151 191.151">
  <path d="M-18.458 6.58h191.151v132.49H-18.458V6.58z" fill="none"/><path d="M40.054 113.583h-5.175c-.183-8.735-.687-16.947-1.511-24.642h-.046l-7.879 24.642h-3.94l-7.832-24.642h-.045c-.581 7.388-.947 15.602-1.099 24.642H7.81c.304-10.993 1.068-21.299 2.289-30.919h6.414l7.465 22.719h.046l7.511-22.719h6.137c1.344 11.268 2.138 21.575 2.382 30.919M62.497 90.771c-2.107 11.434-4.887 19.742-8.337 24.928-2.688 3.992-5.633 5.99-8.84 5.99-.855 0-1.91-.258-3.16-.77v-2.757c.611.088 1.328.138 2.152.138 1.498 0 2.702-.412 3.62-1.238 1.098-1.006 1.647-2.137 1.647-3.388 0-.858-.428-2.612-1.282-5.268L42.618 90.77h5.084l4.076 13.19c.916 2.995 1.298 5.086 1.145 6.277 2.229-5.953 3.786-12.444 4.673-19.468h4.901v.002z" fill="#5d87a1"/><path d="M131.382 113.583h-14.7V82.664h4.945v27.113h9.755v3.806zM112.834 114.33l-5.684-2.805c.504-.414.986-.862 1.42-1.381 2.416-2.838 3.621-7.035 3.621-12.594 0-10.229-4.014-15.346-12.045-15.346-3.938 0-7.01 1.298-9.207 3.895-2.414 2.84-3.619 7.022-3.619 12.551 0 5.435 1.068 9.422 3.205 11.951 1.955 2.291 4.902 3.438 8.843 3.438 1.47 0 2.819-.18 4.048-.543l7.4 4.308 2.018-3.474zm-18.413-6.934c-1.252-2.014-1.878-5.248-1.878-9.707 0-7.785 2.365-11.682 7.1-11.682 2.475 0 4.289.932 5.449 2.792 1.25 2.017 1.879 5.222 1.879 9.619 0 7.849-2.367 11.774-7.099 11.774-2.476.001-4.29-.928-5.451-2.796M85.165 105.013c0 2.622-.962 4.773-2.884 6.458-1.924 1.678-4.504 2.519-7.737 2.519-3.024 0-5.956-.966-8.794-2.888l1.329-2.655c2.442 1.223 4.653 1.831 6.638 1.831 1.863 0 3.319-.413 4.375-1.232 1.055-.822 1.684-1.975 1.684-3.433 0-1.837-1.281-3.407-3.631-4.722-2.167-1.19-6.501-3.678-6.501-3.678-2.349-1.712-3.525-3.55-3.525-6.578 0-2.506.877-4.529 2.632-6.068 1.757-1.545 4.024-2.315 6.803-2.315 2.87 0 5.479.769 7.829 2.291l-1.192 2.656c-2.01-.854-3.994-1.281-5.951-1.281-1.585 0-2.809.381-3.66 1.146-.858.762-1.387 1.737-1.387 2.933 0 1.828 1.308 3.418 3.722 4.759 2.196 1.192 6.638 3.723 6.638 3.723 2.409 1.709 3.612 3.53 3.612 6.534" fill="#f8981d"/><path d="M137.59 72.308c-2.99-.076-5.305.225-7.248 1.047-.561.224-1.453.224-1.531.933.303.3.338.784.601 1.198.448.747 1.229 1.752 1.942 2.276.783.6 1.569 1.194 2.393 1.717 1.453.899 3.1 1.422 4.516 2.318.825.521 1.645 1.195 2.471 1.756.406.299.666.784 1.193.971v-.114c-.264-.336-.339-.822-.598-1.196l-1.122-1.082c-1.084-1.456-2.431-2.727-3.884-3.771-1.196-.824-3.812-1.944-4.297-3.322l-.076-.076c.822-.077 1.797-.375 2.578-.604 1.271-.335 2.43-.259 3.734-.594.6-.15 1.195-.338 1.797-.523v-.337c-.676-.673-1.158-1.567-1.869-2.203-1.902-1.643-3.998-3.25-6.164-4.595-1.16-.749-2.652-1.231-3.887-1.868-.445-.225-1.195-.336-1.457-.71-.67-.822-1.047-1.904-1.533-2.877-1.08-2.053-2.129-4.331-3.061-6.502-.674-1.456-1.084-2.91-1.906-4.257-3.85-6.35-8.031-10.196-14.457-13.971-1.381-.786-3.024-1.121-4.779-1.533l-2.803-.148c-.598-.262-1.197-.973-1.719-1.309-2.132-1.344-7.621-4.257-9.189-.411-1.01 2.431 1.494 4.821 2.354 6.054.635.856 1.458 1.83 1.902 2.802.263.635.337 1.309.6 1.98.598 1.644 1.157 3.473 1.943 5.007.41.782.857 1.604 1.381 2.312.3.414.822.597.936 1.272-.521.744-.562 1.867-.861 2.801-1.344 4.221-.819 9.45 1.086 12.552.596.934 2.018 2.99 3.92 2.202 1.684-.672 1.311-2.801 1.795-4.668.111-.451.038-.747.262-1.043v.073c.521 1.045 1.047 2.052 1.53 3.1 1.159 1.829 3.177 3.735 4.858 5.002.895.676 1.604 1.832 2.725 2.245V74.1h-.074c-.227-.335-.559-.485-.857-.745-.674-.673-1.42-1.495-1.943-2.241-1.566-2.093-2.952-4.41-4.182-6.801-.602-1.16-1.121-2.428-1.606-3.586-.226-.447-.226-1.121-.601-1.346-.562.821-1.381 1.532-1.791 2.538-.711 1.609-.785 3.588-1.049 5.646l-.147.072c-1.19-.299-1.604-1.53-2.056-2.575-1.119-2.654-1.307-6.914-.336-9.976.26-.783 1.385-3.249.936-3.995-.225-.715-.973-1.122-1.383-1.685-.482-.708-1.01-1.604-1.346-2.39-.896-2.091-1.347-4.408-2.312-6.498-.451-.974-1.234-1.982-1.868-2.879-.712-1.008-1.495-1.718-2.058-2.913-.186-.411-.447-1.083-.148-1.53.073-.3.225-.412.523-.487.484-.409 1.867.111 2.352.336 1.385.56 2.543 1.083 3.699 1.867.523.375 1.084 1.085 1.755 1.272h.786c1.193.26 2.538.072 3.661.41 1.979.636 3.772 1.569 5.38 2.576 4.893 3.103 8.928 7.512 11.652 12.778.447.858.637 1.644 1.045 2.539.787 1.832 1.76 3.7 2.541 5.493.785 1.755 1.533 3.547 2.654 5.005.559.784 2.805 1.195 3.812 1.606.745.335 1.905.633 2.577 1.044 1.271.783 2.537 1.682 3.732 2.543.595.448 2.465 1.382 2.576 2.13M99.484 39.844a5.82 5.82 0 0 0-1.529.188v.075h.072c.301.597.824 1.011 1.197 1.532.301.599.562 1.193.857 1.791l.072-.074c.527-.373.789-.971.789-1.868-.227-.264-.262-.522-.451-.784-.22-.374-.705-.56-1.007-.86" fill="#5d87a1"/><path d="M141.148 113.578h.774v-3.788h-1.161l-.947 2.585-1.029-2.585h-1.118v3.788h.731v-2.882h.041l1.078 2.882h.557l1.074-2.882v2.882zm-6.235 0h.819v-3.146h1.072v-.643h-3.008v.643h1.115l.002 3.146z" fill="#f8981d"/>
  </symbol>

  <!--neovim-->
<symbol id="neovim" viewBox="0 0 128 128"><defs><linearGradient id="myicon-grad-a" x1="0.5" x2="0.5" y1="0" y2="1"
      gradientTransform="matrix(32.95703 0 0 154.72266 .426 .426)"
      gradientUnits="userSpaceOnUse">
      <stop offset="0" stop-color="#16b0ed" stop-opacity=".8"/>
      <stop offset="1" stop-color="#0f59b2" stop-opacity=".835294"/>
    </linearGradient>

    <linearGradient id="myicon-grad-b" x1="0.5" x2="0.5" y1="0" y2="1"
      gradientTransform="matrix(-33.59375 0 0 154.72266 128 .426)"
      gradientUnits="userSpaceOnUse">
      <stop offset="0" stop-color="#7db643"/>
      <stop offset="1" stop-color="#367533"/>
    </linearGradient>

    <linearGradient id="myicon-grad-c" x1="0.5" x2="0.5" y1="0" y2="1"
      gradientTransform="matrix(109.71484 0 0 154.72656 9.355 .637)"
      gradientUnits="userSpaceOnUse">
      <stop offset="0" stop-color="#88c649" stop-opacity=".8"/>
      <stop offset="1" stop-color="#439240" stop-opacity=".839216"/>
    </linearGradient>
  </defs>

  <g fill-rule="evenodd">
    <path fill="url(#myicon-grad-a)"
      d="M.426 33.703 33.383.426v154.722L.426 122.258Zm0 0"
      transform="translate(10.95 -.352) scale(.82614)"/>

    <path fill="url(#myicon-grad-b)"
      d="M127.773 34 94.406.426l.676 154.722L128 122.254Zm0 0"
      transform="translate(10.95 -.352) scale(.82614)"/>

    <path fill="url(#myicon-grad-c)"
      d="m33.379.637 85.691 130.75-23.98 23.976L9.355 24.903Zm0 0"
      transform="translate(10.95 -.352) scale(.82614)"/>

    <path fill-opacity="0.129412"
      d="m38.53 50.01-.04 4.244-21.743-32.18 2.014-2.06zm0 0"/>
  </g>
</symbol>

<!--Node-->
  <symbol id="node" viewBox="0 0 128 128">
  <path fill="#5fa04e" d="m86.07 24.66a0.71 0.71 0 0 0-0.3516 0.08984 0.755 0.755 0 0 0-0.375 0.6367v18.93a0.564 0.564 0 0 1-0.2637 0.4648 0.549 0.549 0 0 1-0.5195 0l-3.066-1.773a1.486 1.486 0 0 0-1.479 0l-12.27 7.135a1.48 1.48 0 0 0-0.7539 1.279v14.24c0 0.524 0.2909 1.021 0.7539 1.283l12.27 7.135a1.486 1.486 0 0 0 1.477 0l12.27-7.135c0.463-0.262 0.7539-0.7592 0.7539-1.283v-35.5c0-0.553-0.2909-1.051-0.7539-1.311l-7.32-4.104a0.836 0.836 0 0 0-0.373-0.08984zm-72.39 17.77c-0.23 0-0.4601 0.08717-0.6621 0.2012l-12.27 7.107a1.493 1.493 0 0 0-0.7539 1.309l0.0293 19.1c0 0.263 0.143 0.5256 0.375 0.6426a0.656 0.656 0 0 0 0.7246 0l7.295-4.193a1.48 1.48 0 0 0 0.75-1.281v-8.939c0-0.524 0.2899-1.021 0.7539-1.283l3.096-1.805a1.39 1.39 0 0 1 0.752-0.2031c0.26 0 0.5216 0.05713 0.7246 0.2031l3.096 1.805c0.463 0.262 0.7539 0.7592 0.7539 1.283v8.939c0 0.522 0.288 1.021 0.75 1.281l7.236 4.193a0.704 0.704 0 0 0 0.752 0 0.724 0.724 0 0 0 0.377-0.6426v-19.1c0-0.524-0.2899-1.02-0.7539-1.283l-12.24-7.133a1.763 1.763 0 0 0-0.6641-0.2012h-0.1211zm100.7 0.207v0.001953l-0.00195 0.001953c-0.253 0-0.5043 0.06527-0.7363 0.1973l-12.27 7.131c-0.463 0.264-0.75 0.7582-0.75 1.283v14.24c0 0.524 0.287 1.02 0.75 1.281l12.18 6.988a1.43 1.43 0 0 0 1.447 0l7.381-4.133a0.724 0.724 0 0 0 0.375-0.6426 0.724 0.724 0 0 0-0.375-0.6406l-12.33-7.135a0.76 0.76 0 0 1-0.375-0.6465v-4.455a0.72 0.72 0 0 1 0.375-0.6367l3.855-2.213a0.705 0.705 0 0 1 0.752 0l3.844 2.213a0.762 0.762 0 0 1 0.377 0.6367v3.494c0 0.263 0.144 0.5246 0.375 0.6406a0.704 0.704 0 0 0 0.7539 0l7.291-4.279a1.46 1.46 0 0 0 0.7285-1.279v-3.465c0-0.524-0.2935-1.02-0.7285-1.283l-12.18-7.1a1.499 1.499 0 0 0-0.7402-0.2012h-0.00195zm-67.19 0.2344c-0.1712 0.02912-0.3392 0.08545-0.4941 0.1758l-11.87 6.893 13.15 24.26c0.0696-0.02714 0.1393-0.05957 0.2051-0.09766l12.26-7.121c0.1751-0.102 0.3237-0.237 0.4414-0.3945l-13.69-23.72zm1.283 0.3496 8.127 14.09 3.855-7.131c-0.007358-0.004457-0.01403-0.009333-0.02148-0.01367l-11.96-6.941zm-14.42 7.268c-0.2244 0.2655-0.3555 0.6048-0.3555 0.9629v14.24c0 0.1761 0.03375 0.3452 0.0918 0.5059l4.525-7.848-4.262-7.865zm27.04 0.4824-3.943 7.287 4.025 6.977v-13.78c0-0.1668-0.0298-0.3272-0.08203-0.4805zm19.69 2.303c0.065 0 0.1295 0.01492 0.1895 0.04492l4.193 2.447c0.116 0.058 0.1758 0.2014 0.1758 0.3184v4.893c0 0.146-0.06078 0.2643-0.1758 0.3223l-4.195 2.445a0.431 0.431 0 0 1-0.377 0l-4.195-2.443c-0.116-0.058-0.1758-0.2053-0.1758-0.3223v-4.893c0-0.146 0.06078-0.2613 0.1758-0.3203l4.195-2.447a0.425 0.425 0 0 1 0.1895-0.04492zm33.55 1.98a0.26 0.26 0 0 0-0.1445 0.04492l-2.346 1.369a0.3 0.3 0 0 0-0.1426 0.2598v2.74c0 0.116 0.05558 0.2037 0.1426 0.2617l2.346 1.369a0.262 0.262 0 0 0 0.2891 0l2.344-1.369a0.308 0.308 0 0 0 0.1445-0.2617v-2.738a0.303 0.303 0 0 0-0.1445-0.2598l-2.344-1.371a0.26 0.26 0 0 0-0.1445-0.04297v-0.001953zm-75.5 4.066-4.414 7.654c0.004874 0.002915 0.008757 0.006903 0.01367 0.009766l12.25 7.121c0.06838 0.03947 0.1405 0.0719 0.2129 0.09961l-8.066-14.88zm24.41 12.32c-0.427 0-0.8528 0.1007-1.215 0.3047l-11.55 6.73a2.457 2.457 0 0 0-1.215 2.125v13.42c0 0.874 0.4628 1.689 1.215 2.127l3.041 1.746c1.475 0.728 1.995 0.7227 2.66 0.7227 2.17 0 3.416-1.337 3.416-3.637v-13.24a0.356 0.356 0 0 0-0.3457-0.3516h-1.475a0.356 0.356 0 0 0-0.3516 0.3516v13.25c0 1.019-1.066 2.039-2.773 1.166l-3.156-1.834c-0.116-0.058-0.1738-0.2063-0.1738-0.3223v-13.43c0-0.116 0.05783-0.2633 0.1738-0.3203l11.54-6.695c0.087-0.058 0.2316-0.058 0.3496 0l11.54 6.695c0.115 0.06 0.1758 0.1763 0.1758 0.3203v13.42c0 0.145-0.05978 0.2643-0.1758 0.3223l-11.55 6.727c-0.087 0.058-0.2316 0.058-0.3496 0l-2.949-1.777c-0.088-0.058-0.205-0.0853-0.291-0.0293-0.81 0.468-0.9524 0.5271-1.734 0.7891-0.174 0.058-0.4628 0.1722 0.1152 0.4922l3.852 2.303c0.376 0.203 0.7798 0.3184 1.215 0.3184 0.434 0 0.8659-0.1148 1.213-0.2598l11.55-6.727a2.463 2.463 0 0 0 1.215-2.129v-13.42c0-0.874-0.4628-1.686-1.215-2.123l-11.55-6.73a2.488 2.488 0 0 0-1.213-0.3047v-0.001953zm18.03 6.129a2.236 2.236 0 0 0-2.227 2.244 2.236 2.236 0 0 0 2.227 2.242c1.217 0 2.23-1.02 2.23-2.242a2.254 2.254 0 0 0-2.23-2.242v-0.001953zm-0.0293 0.377h0.001953a1.86 1.86 0 0 1 1.883 1.867c0 1.02-0.8408 1.891-1.883 1.891-1.012 0-1.854-0.8426-1.854-1.891 0-1.048 0.8696-1.865 1.852-1.867zm-0.8105 0.6133v2.561h0.4941v-1.014h0.4375c0.174 0 0.2298 0.05812 0.2598 0.2031 0 0.03 0.08594 0.6692 0.08594 0.7852h0.5195c-0.06-0.116-0.08623-0.4679-0.1152-0.6719-0.028-0.32-0.0563-0.5511-0.4043-0.5801 0.174-0.059 0.4609-0.1453 0.4609-0.6113 0-0.67-0.5801-0.6699-0.8691-0.6699l-0.8691-0.001953zm0.4375 0.4082h0.4023c0.146 0 0.3789-3.91e-4 0.3789 0.3496 0 0.116-0.05891 0.3496-0.3789 0.3496h-0.4023v-0.6992zm-14.47 2.01c-3.3 0-5.271 1.399-5.271 3.758 0 2.534 1.968 3.229 5.123 3.549 3.79 0.38 4.08 0.9344 4.08 1.691 0 1.31-1.042 1.861-3.473 1.861-3.068 0-3.735-0.7568-3.967-2.299 0-0.176-0.1405-0.291-0.3145-0.291h-1.504a0.35 0.35 0 0 0-0.3516 0.3516c0 1.98 1.045 4.307 6.111 4.307 3.645 0 5.754-1.456 5.754-4.02 0-2.503-1.68-3.175-5.238-3.641-3.59-0.466-3.965-0.7283-3.965-1.572 0-0.699 0.3205-1.629 2.98-1.629 2.375 0 3.273 0.524 3.621 2.125a0.34 0.34 0 0 0 0.3145 0.2637h1.535c0.087 0 0.1773-0.05723 0.2363-0.1152a0.476 0.476 0 0 0 0.08594-0.2637c-0.231-2.795-2.053-4.076-5.758-4.076z"></path>
  </symbol>
          
<!--ubuntu-->
<symbol id="ubuntu" viewBox="0 0 100 100"><circle cx="50" cy="50" r="45" fill="#f47421"/><circle cx="50" cy="50" r="21.8" fill="none" stroke="#fff" stroke-width="8.6"/><g id="ubuntu__a"><circle cx="19.4" cy="50" r="8.4" fill="#f47421"/><path stroke="#f47421" stroke-width="3.2" d="M67 50h10"/><circle cx="19.4" cy="50" r="6" fill="#fff"/></g><use xlink:href="#ubuntu__a" transform="rotate(120 50 50)"/><use xlink:href="#ubuntu__a" transform="rotate(240 50 50)"/></symbol>

<!--vue-->
<symbol id="vue3" viewBox="0 0 256 221" ><path d="M204.8 0H256L128 220.8 0 0h97.92L128 51.2 157.44 0h47.36Z" fill="#41B883"/><path d="m0 0 128 220.8L256 0h-51.2L128 132.48 50.56 0H0Z" fill="#41B883"/><path d="M50.56 0 128 133.12 204.8 0h-47.36L128 51.2 97.92 0H50.56Z" fill="#35495E"/></symbol>

<!--java-->
<symbol id="java" viewBox="0 0 256 346"><path d="M83 267s-14 8 9 11c27 3 41 2 71-3 0 0 8 5 19 9-67 29-153-2-99-17M74 230s-15 11 8 13c29 3 52 3 92-4 0 0 6 5 15 8-82 24-173 2-115-17" fill="#5382A1"/><path d="M144 166c17 19-4 36-4 36s42-22 22-49c-18-26-32-38 44-82 0 0-119 29-62 95" fill="#E76F00"/><path d="M233 295s10 8-10 15c-39 12-163 15-197 0-12-5 11-13 18-14l12-2c-14-9-89 19-38 28 138 22 251-10 215-27M89 190s-63 15-22 21c17 2 51 2 83-1 26-2 52-7 52-7l-16 9c-64 16-187 8-151-9 30-14 54-13 54-13M202 253c64-33 34-66 13-61l-7 2s2-3 6-5c41-14 73 43-14 66l2-2" fill="#5382A1"/><path d="M162 0s36 36-34 91c-56 45-12 70 0 99-32-30-56-56-40-80 23-35 89-53 74-110" fill="#E76F00"/><path d="M95 345c62 4 158-3 160-32 0 0-4 11-51 20-53 10-119 9-158 2 0 0 8 7 49 10" fill="#5382A1"/></symbol>

<!--spingboot-->
<symbol id="spring" viewBox="0 0 64 64"><path d="M58.2 3.365a29.503 29.503 0 0 1-3.419 6.064A32.094 32.094 0 1 0 9.965 55.372l1.186 1.047a32.08 32.08 0 0 0 52.67-22.253c.875-8.17-1.524-18.51-5.62-30.8zM14.53 55.558a2.744 2.744 0 1 1-.404-3.857 2.744 2.744 0 0 1 .404 3.857zm43.538-9.61c-7.92 10.55-24.83 6.99-35.672 7.502 0 0-1.922.113-3.857.43 0 0 .73-.31 1.663-.663 7.614-2.65 11.213-3.16 15.838-5.54 8.708-4.427 17.322-14.122 19.112-24.2-3.313 9.695-13.373 18.032-22.53 21.418-6.276 2.313-17.614 4.566-17.614 4.566l-.457-.245c-7.714-3.75-7.952-20.457 6.077-25.845 6.143-2.366 12.02-1.067 18.654-2.65 7.084-1.683 15.28-6.99 18.615-13.916 3.73 11.08 8.224 28.422.166 39.15z" fill="#68bd45"/></symbol>

<!--postgresql-->
<symbol id="postgresql" viewBox="0 0 432.071 445.383"><g style="fill-rule:nonzero;clip-rule:nonzero;fill:none;stroke:#fff;stroke-width:12.4651;stroke-linecap:round;stroke-linejoin:round;stroke-miterlimit:4"><path d="M323.205 324.227c2.833-23.601 1.984-27.062 19.563-23.239l4.463.392c13.517.615 31.199-2.174 41.587-7 22.362-10.376 35.622-27.7 13.572-23.148-50.297 10.376-53.755-6.655-53.755-6.655 53.111-78.803 75.313-178.836 56.149-203.322-52.27-66.789-142.748-35.206-144.262-34.386l-.482.089c-9.938-2.062-21.06-3.294-33.554-3.496-22.761-.374-40.032 5.967-53.133 15.904 0 0-161.408-66.498-153.899 83.628 1.597 31.936 45.777 241.655 98.47 178.31 19.259-23.163 37.871-42.748 37.871-42.748 9.242 6.14 20.307 9.272 31.912 8.147l.897-.765c-.281 2.876-.157 5.689.359 9.019-13.572 15.167-9.584 17.83-36.723 23.416-27.457 5.659-11.326 15.734-.797 18.367 12.768 3.193 42.305 7.716 62.268-20.224l-.795 3.188c5.325 4.26 4.965 30.619 5.72 49.452.756 18.834 2.017 36.409 5.856 46.771 3.839 10.36 8.369 37.05 44.036 29.406 29.809-6.388 52.6-15.582 54.677-101.107" style="fill:#000;stroke:#000;stroke-width:37.3953;stroke-linecap:butt;stroke-linejoin:miter"/><path d="M402.395 271.23c-50.302 10.376-53.76-6.655-53.76-6.655 53.111-78.808 75.313-178.843 56.153-203.326-52.27-66.785-142.752-35.2-144.262-34.38l-.486.087c-9.938-2.063-21.06-3.292-33.56-3.496-22.761-.373-40.026 5.967-53.127 15.902 0 0-161.411-66.495-153.904 83.63 1.597 31.938 45.776 241.657 98.471 178.312 19.26-23.163 37.869-42.748 37.869-42.748 9.243 6.14 20.308 9.272 31.908 8.147l.901-.765c-.28 2.876-.152 5.689.361 9.019-13.575 15.167-9.586 17.83-36.723 23.416-27.459 5.659-11.328 15.734-.796 18.367 12.768 3.193 42.307 7.716 62.266-20.224l-.796 3.188c5.319 4.26 9.054 27.711 8.428 48.969-.626 21.259-1.044 35.854 3.147 47.254 4.191 11.4 8.368 37.05 44.042 29.406 29.809-6.388 45.256-22.942 47.405-50.555 1.525-19.631 4.976-16.729 5.194-34.28l2.768-8.309c3.192-26.611.507-35.196 18.872-31.203l4.463.392c13.517.615 31.208-2.174 41.591-7 22.358-10.376 35.618-27.7 13.573-23.148z" style="fill:#336791;stroke:none" stroke="none"/><path d="M215.866 286.484c-1.385 49.516.348 99.377 5.193 111.495 4.848 12.118 15.223 35.688 50.9 28.045 29.806-6.39 40.651-18.756 45.357-46.051 3.466-20.082 10.148-75.854 11.005-87.281M173.104 38.256S11.583-27.76 19.092 122.365c1.597 31.938 45.779 241.664 98.473 178.316 19.256-23.166 36.671-41.335 36.671-41.335M260.349 26.207c-5.591 1.753 89.848-34.889 144.087 34.417 19.159 24.484-3.043 124.519-56.153 203.329"/><path d="M348.282 263.953s3.461 17.036 53.764 6.653c22.04-4.552 8.776 12.774-13.577 23.155-18.345 8.514-59.474 10.696-60.146-1.069-1.729-30.355 21.647-21.133 19.96-28.739-1.525-6.85-11.979-13.573-18.894-30.338-6.037-14.633-82.796-126.849 21.287-110.183 3.813-.789-27.146-99.002-124.553-100.599-97.385-1.597-94.19 119.762-94.19 119.762" style="stroke-linejoin:bevel"/><path d="M188.604 274.334c-13.577 15.166-9.584 17.829-36.723 23.417-27.459 5.66-11.326 15.733-.797 18.365 12.768 3.195 42.307 7.718 62.266-20.229 6.078-8.509-.036-22.086-8.385-25.547-4.034-1.671-9.428-3.765-16.361 3.994z"/><path d="M187.715 274.069c-1.368-8.917 2.93-19.528 7.536-31.942 6.922-18.626 22.893-37.255 10.117-96.339-9.523-44.029-73.396-9.163-73.436-3.193-.039 5.968 2.889 30.26-1.067 58.548-5.162 36.913 23.488 68.132 56.479 64.938"/><path d="M172.517 141.7c-.288 2.039 3.733 7.48 8.976 8.207 5.234.73 9.714-3.522 9.998-5.559.284-2.039-3.732-4.285-8.977-5.015-5.237-.731-9.719.333-9.996 2.367z" style="fill:#fff;stroke-width:4.155;stroke-linecap:butt;stroke-linejoin:miter"/><path d="M331.941 137.543c.284 2.039-3.732 7.48-8.976 8.207-5.238.73-9.718-3.522-10.005-5.559-.277-2.039 3.74-4.285 8.979-5.015 5.239-.73 9.718.333 10.002 2.368z" style="fill:#fff;stroke-width:2.0775;stroke-linecap:butt;stroke-linejoin:miter"/><path d="M350.676 123.432c.863 15.994-3.445 26.888-3.988 43.914-.804 24.748 11.799 53.074-7.191 81.435"/></g></symbol>


<!--C#-->
<symbol id="csharp" viewBox="0 -1.43 255.58 290.11"><path fill="#a179dc" d="M255.57 84.45c0-4.83-1.04-9.1-3.13-12.76a24.4 24.4 0 0 0-9.24-9C209.17 43.05 175.1 23.5 141.1 3.86c-9.17-5.3-18.06-5.1-27.16.27-13.54 7.98-81.35 46.83-101.55 58.53C4.06 67.5.02 74.87 0 84.44v118.37c0 4.72 1 8.9 2.99 12.51 2.05 3.72 5.17 6.82 9.38 9.26 20.21 11.7 88.02 50.55 101.56 58.53 9.11 5.38 18 5.57 27.17.27 34.02-19.64 68.08-39.2 102.1-58.81a24.33 24.33 0 0 0 9.4-9.25c1.99-3.61 2.98-7.8 2.98-12.52l-.01-118.35"/><path fill="#280068" d="M128.18 143.24 2.98 215.33c2.06 3.7 5.18 6.8 9.4 9.25 20.2 11.7 88.01 50.55 101.55 58.53 9.11 5.38 18 5.57 27.17.27 34.02-19.64 68.08-39.2 102.1-58.81a24.33 24.33 0 0 0 9.4-9.25z"/><path fill="#390091" d="M255.57 84.45c0-4.83-1.04-9.1-3.13-12.76l-124.26 71.55 124.41 72.07c2-3.6 2.99-7.79 3-12.51 0 0 0-78.9-.02-118.35"/><g fill="#fff"><path d="M201.9 116.3v13.47h13.47v-13.48h6.73v13.48h13.48v6.73H222.1v13.48h13.48v6.74H222.1v13.47h-6.73V156.7h-13.48v13.48h-6.73V156.7h-13.48v-6.73h13.47V136.5h-13.47v-6.74h13.47v-13.48zm13.47 20.2h-13.48v13.48h13.48z"/><path d="M128.46 48.63a94.96 94.96 0 0 1 82.26 47.45l-.16-.27-41.35 23.8A47.28 47.28 0 0 0 129 96.33h-.54a47.3 47.3 0 0 0-47.3 47.3 47.08 47.08 0 0 0 6.23 23.47 47.28 47.28 0 0 0 82.29-.27l-.2.35 41.29 23.91a94.97 94.97 0 0 1-81.25 47.54h-1.06a94.96 94.96 0 0 1-95-95 95 95 0 0 1 95-95z"/></g></symbol>

<!--dotnet-->
<symbol id="dotnet" viewBox="0 0 456 456"><path fill="#512BD4" d="M0 0h456v456H0z"/><path fill="#fff" d="M81.274 291.333c-3.224 0-5.965-1.074-8.222-3.223-2.257-2.204-3.386-4.821-3.386-7.851 0-3.086 1.129-5.73 3.386-7.934 2.257-2.204 4.998-3.306 8.222-3.306 3.278 0 6.045 1.102 8.302 3.306 2.311 2.204 3.466 4.848 3.466 7.934 0 3.03-1.155 5.647-3.466 7.851-2.257 2.149-5.024 3.223-8.302 3.223ZM210.167 289.515h-20.958l-55.215-87.109a38.977 38.977 0 0 1-3.466-6.86h-.484c.43 2.535.645 7.962.645 16.281v77.688h-18.54V171h22.328l53.362 85.043c2.257 3.527 3.708 5.951 4.353 7.273h.322c-.537-3.14-.806-8.457-.806-15.951V171h18.459v118.515ZM300.449 289.515h-64.888V171h62.309v16.695h-43.124v33.554h39.739v16.612h-39.739v35.042h45.703v16.612ZM392.667 187.695h-33.21v101.82h-19.185v-101.82h-33.129V171h85.524v16.695Z"/></symbol>

<!--sqlite-->

<symbol id="sqlite" preserveAspectRatio="xMidYMid" viewBox="0 0 512 228"><defs><linearGradient x1="57.7%" y1="2%" x2="57.7%" y2="94.4%" id="sqlite__a"><stop stop-color="#97D9F6" offset="0%"/><stop stop-color="#0F80CC" offset="92%"/><stop stop-color="#0F80CC" offset="100%"/></linearGradient></defs><path d="M194.5 112c-6.8 0-12.3 2-16.6 6.1-4.3 4-6.4 9.3-6.4 15.8a23.3 23.3 0 0 0 6.5 17c2.2 2.4 6.6 5.6 13.2 9.7 8 5 13.4 9 16 12 2.5 3.2 3.7 6.4 3.7 9.9 0 4.5-1.5 8.2-4.6 11a18 18 0 0 1-12.4 4 20.1 20.1 0 0 1-20.3-20.8h-2.5v22.9h2.5c.8-2.2 1.8-3.3 3.2-3.3.7 0 2.3.4 4.7 1.3 6 2.1 10.9 3.2 14.7 3.2a23 23 0 0 0 17-7 23.2 23.2 0 0 0 2.4-30.8c-3-4-9-8.6-18-14a59.5 59.5 0 0 1-15-11.3c-2.3-3-3.5-6.1-3.5-9.7 0-3.8 1.5-7 4.2-9.2 2.8-2.3 6.5-3.5 11-3.5 5.2 0 9.5 1.5 12.9 4.6 3.3 3 5.3 7.4 5.9 12.8h2.5V113h-2.3a6 6 0 0 1-.8 2c-.3.3-.7.4-1.4.4a17 17 0 0 1-4.3-1 38.6 38.6 0 0 0-12.3-2.3Zm82.4 0a44.6 44.6 0 0 0-39 22.2 43.5 43.5 0 0 0 4.5 50.2c7 8.2 15.3 13.3 25 15.3 2.1 1.1 5.3 4.1 9.4 9 4.7 5.3 8.6 9.3 11.9 11.6A35.6 35.6 0 0 0 311 227c5.3 0 10-.9 14-2.7l-.9-2.3a20.1 20.1 0 0 1-18.7-2.3c-3.6-2.5-8.3-7.1-13.8-14a47.6 47.6 0 0 0-5.4-6.1c10.6-2 19.3-7.2 26-15.4a42.8 42.8 0 0 0 10.2-28 42 42 0 0 0-13.2-31.4 44.8 44.8 0 0 0-32.4-12.9Zm51.4 0 .1 2.7c5.5 0 8.6 1.7 9.3 5 .3 1.1.4 3.3.4 6.4v59.6c0 4.5-.7 7.3-2 8.6-1.1 1.2-3.2 2-6.2 2.3l-.1 2.6h55.1l1.4-13.5h-2.5c-.7 3.7-2.3 6.3-5 7.8a30.5 30.5 0 0 1-14 2.3h-5.2c-6 0-9.5-2.2-10.5-6.6-.2-.9-.2-1.8-.2-2.8l.2-60.3c0-4.4.5-7.4 1.7-8.9 1.2-1.4 3.3-2.3 6.4-2.5l-.2-2.7h-28.7Zm-50.6 3.3a28 28 0 0 1 23 11.2 48 48 0 0 1 8.8 30.5c0 12.3-3 22.1-8.9 29.5a29 29 0 0 1-23.7 11c-9.5 0-17.2-3.8-23-11.4a47.1 47.1 0 0 1-8.9-29.6c0-12.5 3-22.5 9-30 5.9-7.5 13.8-11.2 23.7-11.2Zm126.9 12.8c-1.3 0-2.4.5-3.1 1.4-.8 1-1 2-.8 3.4a6 6 0 0 0 2.2 3.4c1.1 1 2.4 1.4 3.7 1.4 1.3 0 2.3-.5 3-1.4.7-1 1-2.1.7-3.4-.3-1.4-1-2.5-2-3.4a5.6 5.6 0 0 0-3.7-1.4Zm36.4 9.2c-2.3 8.8-7.3 13.5-14.9 14.3l.1 2.5h8.9l-.2 29.8c0 5.1.2 8.5.5 10.2 1 4.2 3.6 6.3 8.1 6.3 6.6 0 13.4-4 20.6-12l-2.2-1.8c-5.2 5.2-9.7 7.8-13.7 7.8-2.5 0-4-1.4-4.6-4.2l-.2-2.4v-33.7h13.7l-.2-4h-13.4v-12.8H441Zm52.4 11.2c-7.6 0-13.7 3.7-18.5 11a31.3 31.3 0 0 0-4.4 24.4 21 21 0 0 0 6.7 12.2 19 19 0 0 0 12.7 4.3c4.7 0 11.4-1.2 14.1-3.7 2.8-2.4 5.4-6.3 7.8-11.7l-2-2a20.6 20.6 0 0 1-17.1 10.5c-8 0-12.8-4.3-14.6-13l-.5-3.5a46 46 0 0 0 21.4-8c4.8-3.8 9.6-7.9 8.7-12.1a9.9 9.9 0 0 0-3.9-6c-2-1.6-7.4-2.4-10.4-2.4Zm-83 .3-16.3 3.8v2.9l5.7-.7c2.7 0 4.3 1.2 4.8 3.7.2.8.3 2 .4 3.4l-.2 26.8c0 3.7-.5 5.8-1.3 6.5-.8.6-3 1-6.6 1v2.5h25.9v-2.5c-3.7 0-6-.3-7-.9-1-.5-1.8-1.5-2.1-3-.2-1.2-.3-3.1-.4-5.7l.1-37.8h-3Zm78.9 5c1.6 0 3 .6 4.6 1.8a7 7 0 0 1 2.8 4c1.4 7-4.9 12-19 14.7a25 25 0 0 1 2.7-14.1c2.3-4.3 5.3-6.4 8.9-6.4Z" fill="#003B57"/><path d="M157.9 10H17C7.7 10 0 17.7 0 27v155.2c0 9.4 7.7 17.2 17.1 17.2h92.7c-1-46.2 14.7-135.7 48-189.5Z" fill="#0F80CC"/><path d="M152.8 15H17C10.5 15 5 20.4 5 27V171c30.7-11.8 76.8-22 108.7-21.5a989.7 989.7 0 0 1 39-134.5Z" fill="url(#sqlite__a)"/><path d="M190.7 4.9c-9.6-8.6-21.3-5.2-32.8 5a81.4 81.4 0 0 0-5.1 5c-19.7 21-38 59.7-43.7 89.2a81.5 81.5 0 0 1 5.8 17.7l.8 3.5-.9-2.8a173.8 173.8 0 0 0-.8-2 172 172 0 0 0-6.4-12.1l-3.5 11c4.5 8.2 7.3 22.4 7.3 22.4l-1.4-4.1c-1-2.9-6-11.7-7.2-13.7-2 7.5-2.8 12.6-2.1 13.8 1.4 2.4 2.7 6.5 4 11a257.6 257.6 0 0 1 4.6 25c-.3 8.6-.1 17.6.5 25.7a91 91 0 0 0 4.7 24.8l1.5-.8a111 111 0 0 1-3.9-37c.9-22.5 6-49.5 15.6-77.7 16-42.5 38.4-76.6 58.8-93-18.6 17-43.8 71.4-51.4 91.6a365.7 365.7 0 0 0-18 64c6.2-19 26.4-27.2 26.4-27.2s9.8-12.2 21.4-29.6a210 210 0 0 0-22.1 6l-7.1 3s18.1-11 33.7-16C191 73.8 214.2 25.9 190.7 4.9" fill="#003B57"/></symbol>

<!-- LinkedIn Icon -->
<symbol id="linkedin" viewBox="0 0 256 256"><path d="M218.123 218.127h-37.931v-59.403c0-14.165-.253-32.4-19.728-32.4-19.756 0-22.779 15.434-22.779 31.369v60.43h-37.93V95.967h36.413v16.694h.51a39.907 39.907 0 0 1 35.928-19.733c38.445 0 45.533 25.288 45.533 58.186l-.016 67.013ZM56.955 79.27c-12.157.002-22.014-9.852-22.016-22.009-.002-12.157 9.851-22.014 22.008-22.016 12.157-.003 22.014 9.851 22.016 22.008A22.013 22.013 0 0 1 56.955 79.27m18.966 138.858H37.95V95.967h37.97v122.16ZM237.033.018H18.89C8.58-.098.125 8.161-.001 18.471v219.053c.122 10.315 8.576 18.582 18.89 18.474h218.144c10.336.128 18.823-8.139 18.966-18.474V18.454c-.147-10.33-8.635-18.588-18.966-18.453" fill="#0A66C2"/></symbol>
<!-- GitHub Icon -->

            <symbol id="github" viewBox="0 0 128 128">
            <g fill="#181616"><path fill-rule="evenodd" clip-rule="evenodd" d="M64 5.103c-33.347 0-60.388 27.035-60.388 60.388 0 26.682 17.303 49.317 41.297 57.303 3.017.56 4.125-1.31 4.125-2.905 0-1.44-.056-6.197-.082-11.243-16.8 3.653-20.345-7.125-20.345-7.125-2.747-6.98-6.705-8.836-6.705-8.836-5.48-3.748.413-3.67.413-3.67 6.063.425 9.257 6.223 9.257 6.223 5.386 9.23 14.127 6.562 17.573 5.02.542-3.903 2.107-6.568 3.834-8.076-13.413-1.525-27.514-6.704-27.514-29.843 0-6.593 2.36-11.98 6.223-16.21-.628-1.52-2.695-7.662.584-15.98 0 0 5.07-1.623 16.61 6.19C53.7 35 58.867 34.327 64 34.304c5.13.023 10.3.694 15.127 2.033 11.526-7.813 16.59-6.19 16.59-6.19 3.287 8.317 1.22 14.46.593 15.98 3.872 4.23 6.215 9.617 6.215 16.21 0 23.194-14.127 28.3-27.574 29.796 2.167 1.874 4.097 5.55 4.097 11.183 0 8.08-.07 14.583-.07 16.572 0 1.607 1.088 3.49 4.148 2.897 23.98-7.994 41.263-30.622 41.263-57.294C124.388 32.14 97.35 5.104 64 5.104z"></path><path d="M26.484 91.806c-.133.3-.605.39-1.035.185-.44-.196-.685-.605-.543-.906.13-.31.603-.395 1.04-.188.44.197.69.61.537.91zm2.446 2.729c-.287.267-.85.143-1.232-.28-.396-.42-.47-.983-.177-1.254.298-.266.844-.14 1.24.28.394.426.472.984.17 1.255zM31.312 98.012c-.37.258-.976.017-1.35-.52-.37-.538-.37-1.183.01-1.44.373-.258.97-.025 1.35.507.368.545.368 1.19-.01 1.452zm3.261 3.361c-.33.365-1.036.267-1.552-.23-.527-.487-.674-1.18-.343-1.544.336-.366 1.045-.264 1.564.23.527.486.686 1.18.333 1.543zm4.5 1.951c-.147.473-.825.688-1.51.486-.683-.207-1.13-.76-.99-1.238.14-.477.823-.7 1.512-.485.683.206 1.13.756.988 1.237zm4.943.361c.017.498-.563.91-1.28.92-.723.017-1.308-.387-1.315-.877 0-.503.568-.91 1.29-.924.717-.013 1.306.387 1.306.88zm4.598-.782c.086.485-.413.984-1.126 1.117-.7.13-1.35-.172-1.44-.653-.086-.498.422-.997 1.122-1.126.714-.123 1.354.17 1.444.663zm0 0"></path></g>
            </symbol>
          

<!--whatsapp-->

<symbol id="whatsapp" viewBox="0 0 360 362"><path fill="#25D366" fill-rule="evenodd" d="M307.546 52.566C273.709 18.684 228.706.017 180.756 0 81.951 0 1.538 80.404 1.504 179.235c-.017 31.594 8.242 62.432 23.928 89.609L0 361.736l95.024-24.925c26.179 14.285 55.659 21.805 85.655 21.814h.077c98.788 0 179.21-80.413 179.244-179.244.017-47.898-18.608-92.926-52.454-126.807v-.008Zm-126.79 275.788h-.06c-26.73-.008-52.952-7.194-75.831-20.765l-5.44-3.231-56.391 14.791 15.05-54.981-3.542-5.638c-14.912-23.721-22.793-51.139-22.776-79.286.035-82.14 66.867-148.973 149.051-148.973 39.793.017 77.198 15.53 105.328 43.695 28.131 28.157 43.61 65.596 43.593 105.398-.035 82.149-66.867 148.982-148.982 148.982v.008Zm81.719-111.577c-4.478-2.243-26.497-13.073-30.606-14.568-4.108-1.496-7.09-2.243-10.073 2.243-2.982 4.487-11.568 14.577-14.181 17.559-2.613 2.991-5.226 3.361-9.704 1.117-4.477-2.243-18.908-6.97-36.02-22.226-13.313-11.878-22.304-26.54-24.916-31.027-2.613-4.486-.275-6.91 1.959-9.136 2.011-2.011 4.478-5.234 6.721-7.847 2.244-2.613 2.983-4.486 4.478-7.469 1.496-2.991.748-5.603-.369-7.847-1.118-2.243-10.073-24.289-13.812-33.253-3.636-8.732-7.331-7.546-10.073-7.692-2.613-.13-5.595-.155-8.586-.155-2.991 0-7.839 1.118-11.947 5.604-4.108 4.486-15.677 15.324-15.677 37.361s16.047 43.344 18.29 46.335c2.243 2.991 31.585 48.225 76.51 67.632 10.684 4.615 19.029 7.374 25.535 9.437 10.727 3.412 20.49 2.931 28.208 1.779 8.604-1.289 26.498-10.838 30.228-21.298 3.73-10.46 3.73-19.433 2.613-21.298-1.117-1.865-4.108-2.991-8.586-5.234l.008-.017Z" clip-rule="evenodd"/></symbol>

</svg>