<svg width="957" height="987" viewBox="0 0 957 987" fill="none" xmlns="http://www.w3.org/2000/svg">
<path d="M957 459.5C930 844 525 938 478.5 987C430.5 933 20.0002 845.5 0 459.5C0 205.725 214.232 0 478.5 0C742.768 0 957 205.725 957 459.5Z" fill="#7F7F7F" fill-opacity="0.5" style="mix-blend-mode:luminosity"/>
<path d="M957 459.5C930 844 525 938 478.5 987C430.5 933 20.0002 845.5 0 459.5C0 205.725 214.232 0 478.5 0C742.768 0 957 205.725 957 459.5Z" fill="#3D3D3D" style="mix-blend-mode:overlay"/>
<path d="M47.4999 412.009C56.9995 170.009 316.499 54.5093 478.5 268.509C626 77.0094 880.999 133.509 909.5 412.009C917.998 710.509 571.998 814.509 478.5 914.509C368.998 804.509 41.4962 706.509 47.4999 412.009Z" fill="#8D799F"/>
<path d="M446.5 611.999C457.374 626.558 463.494 634.732 478.5 651.499C491.529 637.701 498.354 628.889 510 611.999L513.5 656.499C534.481 407.226 750.133 356.008 841 341C811.307 358.549 799.671 368.088 788.5 384.5C835.5 600 644 616 582.5 551.5C526 608.5 556 663.5 478.5 798.499C399 656.499 428 615 374.5 551.5C250.639 648.387 119.521 519.194 169 384.5C169.308 383.66 147.5 357.5 113.5 341C296.5 378 416 448.5 442.5 656.499C445.562 639.296 446.065 629.51 446.5 611.999Z" fill="#2E2E2E"/>
</svg>
